<?xml version="1.0" encoding="utf-8"?>
<!-- Generator: Adobe Illustrator 26.4.1, SVG Export Plug-In . SVG Version: 6.00 Build 0)  -->
<svg version="1.1" id="Layer_1" xmlns="http://www.w3.org/2000/svg" xmlns:xlink="http://www.w3.org/1999/xlink" x="0px" y="0px"
	 viewBox="0 0 87.4 79.7" style="enable-background:new 0 0 87.4 79.7;" xml:space="preserve">
<style type="text/css">
	.st0{fill:#39B54A;}
</style>
<g>
	<path class="st0" d="M1.2,35l15-0.2l1.1,0.3c3,1.7,5.9,3.7,8.5,6c1.9,1.6,3.8,3.4,5.5,5.3c5.4-8.7,11.1-16.6,17.2-23.9
		c6.6-8,13.7-15.3,21-21.9L71,0h16.4l-3.3,3.7C74,14.9,64.8,26.6,56.5,38.6c-8.3,12-15.7,24.4-22.4,37.2l-2.1,4l-1.9-4
		c-3.5-7.5-7.7-14.3-12.6-20.5S6.8,43.6,0,39L1.2,35L1.2,35L1.2,35z"/>
</g>
</svg>
